<svg xmlns="http://www.w3.org/2000/svg" viewBox="0 0 255 255" fill="none">
  <path d="M128.5 248.4C196.7 248.4 252 193.1 252 124.9C252 56.7 196.7 1.4 128.5 1.4C60.3 1.4 5 56.7 5 124.9C5 193.1 60.3 248.4 128.5 248.4Z" fill="#fff"/>
  <path d="M128.5 7.4c64.6 0 117 52.4 117 117s-52.4 117-117 117S11.5 189 11.5 124.4s52.4-117 117-117m0-6c-67.9 0-123 55.1-123 123s55.1 123 123 123s123-55.1 123-123s-55.1-123-123-123z" fill="#FF6600"/>
  <path d="M103.4 121.6c-1.1 0-2.1 0.1-3.2 0.1c-0.9 0-1.7-0.1-2.5-0.2c-0.8-0.1-1.5-0.3-2.2-0.6c-0.7-0.3-1.3-0.7-1.9-1.2c-0.6-0.5-1.1-1.1-1.5-1.8c-0.4-0.7-0.7-1.4-0.9-2.3c-0.2-0.8-0.3-1.7-0.3-2.6c0-0.9 0.1-1.8 0.3-2.6c0.2-0.8 0.5-1.6 0.9-2.3c0.4-0.7 0.9-1.3 1.5-1.8c0.6-0.5 1.2-0.9 1.9-1.2c0.7-0.3 1.4-0.5 2.2-0.6c0.8-0.1 1.6-0.2 2.5-0.2c1.1 0 2.1 0.1 3.2 0.1c0.4 0 0.9 0 1.3 0c0.5 0 0.9-0.1 1.3-0.1c0.9-0.1 1.7-0.1 2.6-0.1c0.9 0 1.7 0.1 2.6 0.1c0.4 0 0.9 0.1 1.3 0.1c0.5 0 0.9 0 1.3 0c1.1-0.1 2.1-0.1 3.2-0.1c0.9 0 1.7 0.1 2.5 0.2c0.8 0.1 1.5 0.3 2.2 0.6c0.7 0.3 1.3 0.7 1.9 1.2c0.6 0.5 1.1 1.1 1.5 1.8c0.4 0.7 0.7 1.5 0.9 2.3c0.2 0.8 0.3 1.7 0.3 2.6c0 0.9-0.1 1.8-0.3 2.6c-0.2 0.8-0.5 1.6-0.9 2.3c-0.4 0.7-0.9 1.3-1.5 1.8c-0.6 0.5-1.2 0.9-1.9 1.2c-0.7 0.3-1.4 0.5-2.2 0.6c-0.8 0.1-1.6 0.2-2.5 0.2c-1.1 0-2.1-0.1-3.2-0.1c-0.4 0-0.9 0-1.3 0c-0.5 0-0.9 0.1-1.3 0.1c-0.9 0.1-1.7 0.1-2.6 0.1c-0.9 0-1.7-0.1-2.6-0.1c-0.4 0-0.9-0.1-1.3-0.1c-0.5 0-0.9 0-1.3 0z" fill="#FF6600"/>
  <path d="M155.4 138.4c0 0.9-0.1 1.8-0.3 2.6c-0.2 0.8-0.5 1.6-0.9 2.3c-0.4 0.7-0.9 1.3-1.5 1.8c-0.6 0.5-1.2 0.9-1.9 1.2c-0.7 0.3-1.4 0.5-2.2 0.6c-0.8 0.1-1.6 0.2-2.5 0.2c-1.1 0-2.1-0.1-3.2-0.1c-0.4 0-0.9 0-1.3 0c-0.5 0-0.9 0.1-1.3 0.1c-0.9 0.1-1.7 0.1-2.6 0.1c-0.9 0-1.7-0.1-2.6-0.1c-0.4 0-0.9-0.1-1.3-0.1c-0.5 0-0.9 0-1.3 0c-1.1 0.1-2.1 0.1-3.2 0.1c-0.9 0-1.7-0.1-2.5-0.2c-0.8-0.1-1.5-0.3-2.2-0.6c-0.7-0.3-1.3-0.7-1.9-1.2c-0.6-0.5-1.1-1.1-1.5-1.8c-0.4-0.7-0.7-1.5-0.9-2.3c-0.2-0.8-0.3-1.7-0.3-2.6c0-0.9 0.1-1.8 0.3-2.6c0.2-0.8 0.5-1.6 0.9-2.3c0.4-0.7 0.9-1.3 1.5-1.8c0.6-0.5 1.2-0.9 1.9-1.2c0.7-0.3 1.4-0.5 2.2-0.6c0.8-0.1 1.6-0.2 2.5-0.2c1.1 0 2.1 0.1 3.2 0.1c0.4 0 0.9 0 1.3 0c0.5 0 0.9-0.1 1.3-0.1c0.9-0.1 1.7-0.1 2.6-0.1c0.9 0 1.7 0.1 2.6 0.1c0.4 0 0.9 0.1 1.3 0.1c0.5 0 0.9 0 1.3 0c1.1-0.1 2.1-0.1 3.2-0.1c0.9 0 1.7 0.1 2.5 0.2c0.8 0.1 1.5 0.3 2.2 0.6c0.7 0.3 1.3 0.7 1.9 1.2c0.6 0.5 1.1 1.1 1.5 1.8c0.4 0.7 0.7 1.5 0.9 2.3c0.2 0.8 0.3 1.7 0.3 2.6z" fill="#FF6600"/>
  <path d="M128.3 163.6c-1.1 0-2.1 0.1-3.2 0.1c-0.9 0-1.7-0.1-2.5-0.2c-0.8-0.1-1.5-0.3-2.2-0.6c-0.7-0.3-1.3-0.7-1.9-1.2c-0.6-0.5-1.1-1.1-1.5-1.8c-0.4-0.7-0.7-1.5-0.9-2.3c-0.2-0.8-0.3-1.7-0.3-2.6c0-0.9 0.1-1.8 0.3-2.6c0.2-0.8 0.5-1.6 0.9-2.3c0.4-0.7 0.9-1.3 1.5-1.8c0.6-0.5 1.2-0.9 1.9-1.2c0.7-0.3 1.4-0.5 2.2-0.6c0.8-0.1 1.6-0.2 2.5-0.2c1.1 0 2.1 0.1 3.2 0.1c0.4 0 0.9 0 1.3 0c0.5 0 0.9-0.1 1.3-0.1c0.9-0.1 1.7-0.1 2.6-0.1c0.9 0 1.7 0.1 2.6 0.1c0.4 0 0.9 0.1 1.3 0.1c0.5 0 0.9 0 1.3 0c1.1-0.1 2.1-0.1 3.2-0.1c0.9 0 1.7 0.1 2.5 0.2c0.8 0.1 1.5 0.3 2.2 0.6c0.7 0.3 1.3 0.7 1.9 1.2c0.6 0.5 1.1 1.1 1.5 1.8c0.4 0.7 0.7 1.5 0.9 2.3c0.2 0.8 0.3 1.7 0.3 2.6c0 0.9-0.1 1.8-0.3 2.6c-0.2 0.8-0.5 1.6-0.9 2.3c-0.4 0.7-0.9 1.3-1.5 1.8c-0.6 0.5-1.2 0.9-1.9 1.2c-0.7 0.3-1.4 0.5-2.2 0.6c-0.8 0.1-1.6 0.2-2.5 0.2c-1.1 0-2.1-0.1-3.2-0.1c-0.4 0-0.9 0-1.3 0c-0.5 0-0.9 0.1-1.3 0.1c-0.9 0.1-1.7 0.1-2.6 0.1c-0.9 0-1.7-0.1-2.6-0.1c-0.4 0-0.9-0.1-1.3-0.1c-0.5 0-0.9 0-1.3 0z" fill="#FF6600"/>
  <path d="M144.3 186.3c0 7.1-7.1 12.8-15.8 12.8c-8.7 0-15.8-5.7-15.8-12.8s7.1-12.8 15.8-12.8C137.2 173.5 144.3 179.3 144.3 186.3z" fill="#FF6600"/>
  <path d="M181.3 101.9c0 7.1-7.1 12.8-15.8 12.8c-8.7 0-15.8-5.7-15.8-12.8s7.1-12.8 15.8-12.8C174.2 89.1 181.3 94.9 181.3 101.9z" fill="#FF6600"/>
  <path d="M106.6 101.9c0 7.1-7.1 12.8-15.8 12.8c-8.7 0-15.8-5.7-15.8-12.8s7.1-12.8 15.8-12.8C99.5 89.1 106.6 94.9 106.6 101.9z" fill="#FF6600"/>
  <path d="M144.3 78.1c0 7.1-7.1 12.8-15.8 12.8c-8.7 0-15.8-5.7-15.8-12.8s7.1-12.8 15.8-12.8C137.2 65.3 144.3 71.1 144.3 78.1z" fill="#FF6600"/>
</svg>
